<?xml version="1.0" encoding="UTF-8"?><svg xmlns="http://www.w3.org/2000/svg" viewBox="0 0 595.28 595.28"><defs><style>.cls-1{fill:#ed6c2d;}.cls-2{fill:#fff;}</style></defs><g id="Layer_4"><rect class="cls-2" width="595.28" height="595.28"/></g><g id="Layer_3"><g><path class="cls-1" d="M92.39,321.98c4.78,0,8.36,.95,10.75,2.84,2.39,1.89,3.94,5,4.67,9.31l16.96-.74c-.27-7.72-3.07-13.89-8.4-18.51-5.33-4.62-13.27-6.93-23.81-6.93-3.75,0-7.16,.34-10.27,.99v15.18c2.62-1.41,5.98-2.13,10.1-2.13Z"/><path class="cls-1" d="M127.18,368.92c0-5.31-1.12-9.77-3.35-13.38-2.23-3.61-5.33-6.46-9.28-8.54-3.95-2.08-10.06-4.1-18.31-6.05-8.25-1.95-13.45-3.82-15.59-5.62-1.68-1.41-2.52-3.11-2.52-5.1,0-.35,.03-.68,.08-1.01h-16.18c-.07,.71-.12,1.43-.12,2.16,0,6.65,2.58,12.28,7.74,16.91,3.67,3.29,10.05,6.06,19.14,8.31,7.07,1.76,11.6,2.98,13.58,3.67,2.9,1.03,4.94,2.24,6.1,3.64,1.17,1.39,1.75,3.09,1.75,5.07,0,3.09-1.39,5.8-4.16,8.11-2.77,2.31-6.89,3.47-12.35,3.47-5.16,0-9.26-1.3-12.29-3.9-3.04-2.6-5.05-6.67-6.05-12.21l-16.51,1.6c1.11,9.4,4.51,16.55,10.2,21.46,5.69,4.91,13.85,7.36,24.47,7.36,7.3,0,13.39-1.02,18.28-3.07,4.89-2.04,8.67-5.17,11.35-9.37,2.67-4.2,4.01-8.71,4.01-13.53Z"/><polygon class="cls-1" points="177.06 379.23 152.54 379.23 152.54 356.37 194.73 356.37 194.73 342.21 152.54 342.21 152.54 323.59 197.88 323.59 197.88 309.37 135.58 309.37 135.58 393.39 177.06 393.39 177.06 379.23"/><polygon class="cls-1" points="274.82 309.37 259.06 309.37 259.06 365.48 226.1 311.69 226.1 329.22 208.17 329.22 208.17 393.39 223.93 393.39 223.93 338.6 257.8 393.39 274.82 393.39 274.82 309.37"/><polygon class="cls-1" points="280.87 323.59 305.8 323.59 305.8 369.02 322.77 369.02 322.77 323.59 347.64 323.59 347.64 309.37 280.87 309.37 280.87 323.59"/><rect class="cls-1" x="352.2" y="309.37" width="16.96" height="84.02"/><path class="cls-1" d="M439.06,318.71c-3.52-3.71-7.74-6.28-12.67-7.74-3.67-1.07-9-1.6-15.99-1.6h-31.01v59.65h16.96v-45.44h7.62c6.91,0,11.56,.27,13.93,.8,3.17,.69,5.79,2.01,7.85,3.95,2.06,1.95,3.67,4.66,4.81,8.14,1.15,3.48,1.72,8.46,1.72,14.96s-.57,11.63-1.72,15.39c-1.15,3.76-2.63,6.47-4.44,8.11-1.82,1.64-4.1,2.81-6.85,3.5-2.1,.54-5.52,.8-10.26,.8h-8v14.16h10.29c6.27,0,11.27-.59,15.01-1.78,5.01-1.6,8.98-3.84,11.92-6.71,3.9-3.78,6.9-8.73,9-14.84,1.72-5.01,2.58-10.97,2.58-17.88,0-7.87-.92-14.49-2.75-19.86-1.83-5.37-4.51-9.9-8.02-13.61Z"/><path class="cls-1" d="M536.41,351.5c0-13.68-3.72-24.36-11.15-32.04-5.38-5.56-12.06-9.09-20.03-10.63v15.42c2.78,1.18,5.21,2.95,7.31,5.3,4.22,4.74,6.33,11.92,6.33,21.55s-2.17,17.05-6.51,21.92c-2.1,2.35-4.48,4.13-7.14,5.35v15.61c8.03-1.51,14.74-5.05,20.12-10.64,7.37-7.66,11.06-18.27,11.06-31.84Z"/><path class="cls-1" d="M478.99,372.96c-4.39-4.91-6.59-12.12-6.59-21.63s2.14-16.9,6.42-21.69c2.1-2.35,4.53-4.12,7.28-5.32v-15.57c-3.09,.55-5.98,1.39-8.66,2.52-3.94,1.64-7.56,4.17-10.86,7.56-3.31,3.4-5.91,7.24-7.82,11.52-2.56,5.81-3.84,12.99-3.84,21.55,0,13.37,3.69,23.87,11.06,31.49,5.35,5.53,12.06,9.05,20.12,10.57v-15.65c-2.64-1.22-5.01-3-7.11-5.35Z"/><path class="cls-1" d="M106.43,281.84c-3.25,1.26-6.99,1.89-11.23,1.89-4.78,0-9.07-.83-12.89-2.49-3.82-1.66-6.64-3.84-8.45-6.53-1.81-2.69-2.97-6.14-3.47-10.34l-10.49,.92c.15,5.62,1.69,10.65,4.61,15.1,2.92,4.45,6.95,7.78,12.09,10,5.14,2.22,11.51,3.32,19.11,3.32,6,0,11.4-1.1,16.19-3.3,4.79-2.2,8.47-5.27,11.03-9.23,2.56-3.95,3.84-8.17,3.84-12.64s-1.17-8.49-3.5-11.95c-2.33-3.46-5.94-6.31-10.83-8.57-3.36-1.53-9.56-3.31-18.6-5.36-9.04-2.04-14.62-4.04-16.76-5.99-2.18-1.95-3.27-4.43-3.27-7.45,0-3.48,1.54-6.45,4.61-8.91,3.08-2.46,7.98-3.7,14.7-3.7s11.34,1.36,14.64,4.07c3.3,2.71,5.24,6.72,5.82,12.04l10.66-.8c-.19-4.93-1.57-9.34-4.13-13.24-2.56-3.9-6.22-6.85-10.98-8.85-4.76-2.01-10.25-3.01-16.48-3.01-5.66,0-10.79,.96-15.42,2.87-4.62,1.91-8.14,4.71-10.55,8.4-2.41,3.69-3.61,7.65-3.61,11.89,0,3.86,.98,7.35,2.95,10.46,1.97,3.11,4.96,5.72,8.97,7.82,3.09,1.64,8.5,3.39,16.22,5.24,7.72,1.85,12.7,3.22,14.96,4.1,3.51,1.34,6.04,2.99,7.56,4.96,1.53,1.97,2.29,4.27,2.29,6.91s-.79,5-2.38,7.19c-1.59,2.2-4,3.93-7.25,5.19Z"/><polygon class="cls-1" points="199.02 282.35 147.44 282.35 147.44 253.76 193.92 253.76 193.92 243.9 147.44 243.9 147.44 218.17 197.08 218.17 197.08 208.25 136.33 208.25 136.33 292.27 199.02 292.27 199.02 282.35"/><path class="cls-1" d="M274.63,208.36v-.11h-12.01l-16.91,22.29c-2.56,3.32-4.78,6.51-6.65,9.57-1.34-2.41-3.59-5.85-6.76-10.32l-15.24-21.55h-13.24l28.66,40.23-32.5,43.79h13.35l21.09-29.29c.8-1.15,2.14-3.25,4.01-6.3,1.26,2.03,2.48,3.9,3.67,5.62l21.15,29.97h13.75l-31.81-44.42,29.43-39.49Z"/><polygon class="cls-1" points="274.63 218.17 302.31 218.17 302.31 292.27 313.43 292.27 313.43 218.17 341.22 218.17 341.22 208.25 274.71 208.25 274.63 208.36 274.63 218.17"/><polygon class="cls-1" points="274.71 208.25 274.63 208.25 274.63 208.36 274.71 208.25"/><path class="cls-1" d="M360.23,287.97c6.23,3.82,13.3,5.73,21.2,5.73,7.3,0,14.1-1.73,20.4-5.19,6.3-3.46,11.18-8.55,14.61-15.27,3.44-6.72,5.16-14.35,5.16-22.87s-1.63-15.92-4.9-22.55c-3.27-6.63-8.01-11.8-14.24-15.5-6.23-3.71-13.22-5.56-20.97-5.56-11.85,0-21.51,3.95-29,11.83-7.49,7.89-11.23,18.81-11.23,32.75,0,7.37,1.6,14.37,4.81,20.98,3.21,6.61,7.93,11.83,14.16,15.65Zm1-63.53c5.67-5.41,12.45-8.11,20.32-8.11,5.54,0,10.53,1.4,14.99,4.21,4.45,2.81,7.83,6.76,10.14,11.86,2.31,5.1,3.47,11.07,3.47,17.91,0,10.81-2.7,19.16-8.11,25.05-5.41,5.88-12.29,8.83-20.66,8.83s-15.04-2.91-20.49-8.74c-5.44-5.83-8.17-13.8-8.17-23.93,0-12.65,2.84-21.67,8.51-27.08Z"/><path class="cls-1" d="M71.31,171.38h9.58c5.28,0,8.93-1.1,10.95-3.3,2.02-2.2,3.03-4.89,3.03-8.06,0-1.85-.38-3.55-1.13-5.09-.76-1.54-1.75-2.75-2.99-3.6-1.24-.86-2.78-1.44-4.61-1.74-1.31-.24-3.2-.36-5.68-.36h-14.09v37.34h4.94v-15.18Zm0-17.75h9.55c2.24,0,3.78,.11,4.61,.33,1.29,.36,2.33,1.09,3.12,2.2,.79,1.11,1.18,2.45,1.18,4.01,0,2.16-.67,3.83-2.01,5.02-1.34,1.19-3.61,1.78-6.8,1.78h-9.65v-13.35Z"/><path class="cls-1" d="M106.18,169.98h5.73c1.27,0,2.19,.06,2.75,.18,.76,.19,1.52,.52,2.25,.99,.74,.48,1.57,1.31,2.51,2.5,.93,1.19,2.12,2.9,3.57,5.15l4.94,7.77h6.22l-6.5-10.16c-1.29-1.99-2.66-3.64-4.1-4.97-.68-.61-1.67-1.23-2.98-1.86,3.58-.49,6.23-1.65,7.95-3.46,1.72-1.82,2.57-4.05,2.57-6.7,0-2.05-.52-3.93-1.55-5.63-1.04-1.7-2.42-2.88-4.15-3.55-1.73-.67-4.26-1.01-7.59-1.01h-16.56v37.34h4.94v-16.58Zm0-16.63h11.82c2.77,0,4.79,.57,6.07,1.71,1.28,1.14,1.92,2.59,1.92,4.36,0,1.21-.33,2.32-.99,3.35-.66,1.03-1.63,1.77-2.9,2.24-1.27,.47-3.04,.7-5.3,.7h-10.62v-12.35Z"/><path class="cls-1" d="M145.76,184.66c2.77,1.7,5.91,2.55,9.42,2.55,3.24,0,6.27-.77,9.07-2.31,2.8-1.54,4.97-3.8,6.5-6.79,1.53-2.99,2.29-6.38,2.29-10.16s-.73-7.08-2.18-10.02c-1.45-2.95-3.56-5.24-6.33-6.89-2.77-1.65-5.88-2.47-9.32-2.47-5.26,0-9.56,1.75-12.89,5.26-3.33,3.51-4.99,8.36-4.99,14.56,0,3.28,.71,6.38,2.14,9.32,1.43,2.94,3.52,5.26,6.29,6.95Zm.45-28.24c2.52-2.4,5.53-3.6,9.03-3.6,2.46,0,4.68,.62,6.66,1.87,1.98,1.25,3.48,3.01,4.51,5.27,1.03,2.27,1.54,4.92,1.54,7.96,0,4.81-1.2,8.52-3.6,11.13-2.4,2.62-5.46,3.92-9.18,3.92s-6.69-1.29-9.11-3.88c-2.42-2.59-3.63-6.13-3.63-10.63,0-5.62,1.26-9.63,3.78-12.04Z"/><path class="cls-1" d="M186.92,187.2c2.21,0,4.13-.45,5.77-1.35,1.64-.9,2.84-2.21,3.59-3.92,.76-1.72,1.13-4.13,1.13-7.26v-25.45h-4.94v25.73c0,2.14-.17,3.7-.51,4.67-.34,.98-.96,1.75-1.86,2.32-.9,.57-1.97,.85-3.21,.85-1.68,0-3-.53-3.95-1.58-.95-1.05-1.49-3.01-1.6-5.86l-4.46,.61c-.07,3.72,.77,6.52,2.51,8.41,1.74,1.88,4.25,2.83,7.53,2.83Z"/><polygon class="cls-1" points="233.46 182.16 210.54 182.16 210.54 169.45 231.19 169.45 231.19 165.07 210.54 165.07 210.54 153.63 232.59 153.63 232.59 149.22 205.6 149.22 205.6 186.57 233.46 186.57 233.46 182.16"/><polygon class="cls-1" points="249.79 186.57 254.73 186.57 254.73 153.63 267.08 153.63 267.08 149.22 237.49 149.22 237.49 153.63 249.79 153.63 249.79 186.57"/><path class="cls-1" d="M278.14,184.66c2.77,1.7,5.91,2.55,9.42,2.55,3.24,0,6.27-.77,9.07-2.31,2.8-1.54,4.97-3.8,6.5-6.79,1.53-2.99,2.29-6.38,2.29-10.16s-.73-7.08-2.18-10.02c-1.45-2.95-3.56-5.24-6.33-6.89-2.77-1.65-5.88-2.47-9.32-2.47-5.26,0-9.56,1.75-12.89,5.26-3.33,3.51-4.99,8.36-4.99,14.56,0,3.28,.71,6.38,2.14,9.32,1.43,2.94,3.52,5.26,6.29,6.95Zm.45-28.24c2.52-2.4,5.53-3.6,9.03-3.6,2.46,0,4.68,.62,6.66,1.87,1.98,1.25,3.48,3.01,4.51,5.27,1.03,2.27,1.54,4.92,1.54,7.96,0,4.81-1.2,8.52-3.6,11.13-2.4,2.62-5.46,3.92-9.18,3.92s-6.69-1.29-9.11-3.88c-2.42-2.59-3.63-6.13-3.63-10.63,0-5.62,1.26-9.63,3.78-12.04Z"/><path class="cls-1" d="M83.64,419.81c-.93-.64-2.08-1.08-3.46-1.31-.98-.18-2.4-.27-4.26-.27h-10.56v28.01h3.71v-11.39h7.18c3.96,0,6.7-.82,8.21-2.47,1.52-1.65,2.27-3.66,2.27-6.05,0-1.39-.28-2.66-.85-3.82s-1.31-2.06-2.24-2.7Zm-2.24,10.4c-1.01,.89-2.71,1.34-5.1,1.34h-7.24v-10.01h7.16c1.68,0,2.83,.08,3.46,.25,.97,.27,1.75,.82,2.34,1.65,.59,.83,.89,1.84,.89,3.01,0,1.62-.5,2.87-1.51,3.76Z"/><path class="cls-1" d="M110.73,419.59c-2.08-1.23-4.41-1.85-6.99-1.85-3.95,0-7.17,1.32-9.67,3.94-2.5,2.63-3.74,6.27-3.74,10.92,0,2.46,.53,4.79,1.6,6.99s2.64,3.94,4.72,5.21c2.08,1.27,4.43,1.91,7.07,1.91,2.43,0,4.7-.58,6.8-1.73,2.1-1.15,3.73-2.85,4.87-5.09s1.72-4.78,1.72-7.62-.54-5.31-1.63-7.52c-1.09-2.21-2.67-3.93-4.75-5.17Zm-.14,21.01c-1.8,1.96-4.1,2.94-6.89,2.94s-5.01-.97-6.83-2.91c-1.82-1.94-2.72-4.6-2.72-7.98,0-4.21,.95-7.22,2.84-9.03,1.89-1.8,4.15-2.7,6.77-2.7,1.85,0,3.51,.47,5,1.4,1.48,.94,2.61,2.25,3.38,3.95,.77,1.7,1.16,3.69,1.16,5.97,0,3.6-.9,6.39-2.7,8.35Z"/><path class="cls-1" d="M138.68,434.89c-.51-.46-1.25-.92-2.24-1.39,2.69-.37,4.67-1.23,5.96-2.6,1.29-1.36,1.93-3.04,1.93-5.02,0-1.54-.39-2.95-1.17-4.22-.78-1.27-1.81-2.16-3.11-2.66-1.3-.5-3.2-.75-5.69-.75h-12.42v28.01h3.71v-12.44h4.3c.96,0,1.64,.04,2.06,.13,.57,.14,1.14,.39,1.69,.75,.55,.36,1.18,.98,1.88,1.87,.7,.89,1.59,2.18,2.67,3.86l3.71,5.83h4.66l-4.87-7.62c-.97-1.49-1.99-2.73-3.08-3.72Zm-5.06-4.3h-7.97v-9.26h8.86c2.08,0,3.59,.43,4.56,1.28,.96,.85,1.44,1.94,1.44,3.27,0,.9-.25,1.74-.75,2.51-.5,.77-1.22,1.33-2.18,1.68-.96,.35-2.28,.52-3.97,.52Z"/><polygon class="cls-1" points="147.34 421.54 156.56 421.54 156.56 446.24 160.27 446.24 160.27 421.54 169.53 421.54 169.53 418.23 147.34 418.23 147.34 421.54"/><path class="cls-1" d="M191.71,434.39c0,3.52-.58,5.89-1.74,7.13-1.16,1.24-3.1,1.85-5.83,1.85-1.59,0-2.94-.31-4.04-.94-1.1-.62-1.88-1.51-2.33-2.66-.45-1.15-.68-2.95-.68-5.38v-16.16h-3.71v16.18c0,2.97,.36,5.31,1.07,7.02,.71,1.71,1.9,3.02,3.57,3.93s3.81,1.36,6.44,1.36,4.88-.52,6.54-1.56c1.66-1.04,2.81-2.38,3.45-4.04s.96-3.89,.96-6.71v-16.18h-3.71v16.16Z"/><path class="cls-1" d="M214.69,435.25h8.23v5.22c-.79,.7-1.95,1.36-3.48,1.98-1.53,.62-3.09,.93-4.7,.93-1.85,0-3.59-.41-5.23-1.22s-2.89-2.06-3.75-3.74c-.86-1.68-1.29-3.77-1.29-6.27,0-2.02,.36-3.9,1.07-5.64,.42-1.01,1.01-1.93,1.77-2.77,.76-.84,1.75-1.52,2.99-2.03,1.24-.52,2.7-.77,4.39-.77,1.41,0,2.7,.24,3.86,.74,1.16,.49,2.05,1.14,2.67,1.96s1.15,1.94,1.57,3.36l3.34-.92c-.48-1.88-1.19-3.41-2.12-4.58s-2.21-2.09-3.85-2.74c-1.64-.66-3.47-.98-5.49-.98-2.79,0-5.25,.57-7.39,1.72s-3.78,2.9-4.92,5.26c-1.14,2.36-1.71,4.91-1.71,7.63s.57,5.24,1.72,7.47c1.15,2.23,2.84,3.93,5.09,5.11,2.25,1.18,4.75,1.77,7.5,1.77,2.04,0,4.02-.37,5.96-1.1,1.94-.73,3.81-1.82,5.64-3.28v-10.39l-11.86,.02v3.29Z"/><path class="cls-1" d="M239.7,418.23l-10.76,28.01h3.94l3.08-8.48h11.71l3.27,8.48h4.22l-11.46-28.01h-3.99Zm-2.67,16.51l3.08-8.21c.65-1.77,1.15-3.55,1.51-5.35,.43,1.52,1.1,3.45,1.99,5.81l2.92,7.76h-9.49Z"/><polygon class="cls-1" points="261.67 418.23 257.96 418.23 257.96 446.24 275.46 446.24 275.46 442.93 261.67 442.93 261.67 418.23"/></g></g></svg>