<?xml version="1.0"?>
<svg xmlns="http://www.w3.org/2000/svg" id="Layer_1" data-name="Layer 1" viewBox="0 0 64 64"><title>Dusk Part 2</title><circle cx="31" cy="31" r="28" style="fill:#c5e4fa;"/><path d="M12.71,52.29a28,28,0,0,0,9.18,5.82L56,24V17.57a28.1,28.1,0,0,0-3.71-4.86Z" style="fill:#e3f2ff;"/><path d="M10.76,50.24,50,11H44L8.22,46.78A28.08,28.08,0,0,0,10.76,50.24Z" style="fill:#e3f2ff;"/><path d="M7.79,43.21,41,10,38,8,6.36,39.64A27.81,27.81,0,0,0,7.79,43.21Z" style="fill:#e3f2ff;"/><path d="M31,3A28,28,0,1,0,59,31,28,28,0,0,0,31,3Zm0,50A22,22,0,1,1,46.17,15.07l.68.67q.39.4.75.82A22,22,0,0,1,31,53Z" style="fill:#85cbf8;"/><path d="M31,53A22,22,0,0,1,9,31H7.34a4,4,0,0,0-3.95,4.71,28,28,0,0,0,55.21,0A4,4,0,0,0,54.66,31H53A22,22,0,0,1,31,53Z" style="fill:#6fc6f0;"/><polygon points="18.94 42.94 26.14 26.14 42.94 18.94 35.74 35.74 18.94 42.94" style="fill:#faefde;"/><polygon points="26.14 26.14 42.94 18.94 35.74 35.74 26.14 26.14" style="fill:#ed7899;"/><circle cx="31" cy="31" r="2" style="fill:#f9e3ae;"/><path d="M31,2A29,29,0,1,0,60,31,29,29,0,0,0,31,2Zm0,56A27,27,0,1,1,58,31,27,27,0,0,1,31,58Z" style="fill:#8d6c9f;"/><path d="M30,19V16.3l2.17,3.25A1,1,0,0,0,33,20a1,1,0,0,0,.29,0A1,1,0,0,0,34,19V13a1,1,0,0,0-2,0v2.7l-2.17-3.25A1,1,0,0,0,28,13v6a1,1,0,0,0,2,0Z" style="fill:#dd5f86;"/><path d="M33,44a1,1,0,0,0,0-2H30a2,2,0,0,0-2,2v1a2,2,0,0,0,2,2h2v1H29a1,1,0,0,0,0,2h3a2,2,0,0,0,2-2V47a2,2,0,0,0-2-2H30V44Z" style="fill:#8d6c9f;"/><path d="M18.95,26.13a1,1,0,0,0-.55-1.3l-1.85-.75a1,1,0,0,0-.75,1.85l1.85.75a1,1,0,0,0,1.3-.55Z" style="fill:#8d6c9f;"/><path d="M20.24,22a1,1,0,1,0,1.39-1.44l-1.44-1.39a1,1,0,0,0-1.39,1.44Z" style="fill:#8d6c9f;"/><path d="M17,29.89H15a1,1,0,0,0-1,1s0,0,0,.06,0,0,0,.06a1,1,0,0,0,1,1h2a1,1,0,0,0,1-1s0,0,0-.06,0,0,0-.06A1,1,0,0,0,17,29.89Z" style="fill:#8d6c9f;"/><path d="M43,35.76a1,1,0,0,0,.55,1.3l1.85.75a1,1,0,0,0,.37.07A1,1,0,0,0,46.14,36l-1.85-.75A1,1,0,0,0,43,35.76Z" style="fill:#8d6c9f;"/><path d="M41.69,39.89a1,1,0,0,0-1.39,1.44l1.44,1.39a1,1,0,1,0,1.39-1.44Z" style="fill:#8d6c9f;"/><path d="M44.93,32H47a1,1,0,0,0,1-1,1,1,0,0,0-.15-.49,1,1,0,0,0-.92-.62h-2a1,1,0,0,0-1,1s0,0,0,.06,0,0,0,.06A1,1,0,0,0,44.93,32Z" style="fill:#8d6c9f;"/><path d="M40.93,18.42,27.23,24.82a5,5,0,0,0-2.41,2.41L18.42,40.93a2,2,0,0,0,1.8,2.85,2,2,0,0,0,.85-.19l13.69-6.41A5,5,0,0,0,36,36.37a.75.75,0,0,0,.41-.41,5,5,0,0,0,.81-1.19l6.41-13.69a2,2,0,0,0-2.66-2.66ZM20.23,41.77l6.41-13.69v0l1.65,1.65A3,3,0,0,0,28,31a3,3,0,0,0,3,3,3,3,0,0,0,1.29-.3l1.65,1.65h0ZM31,32.29A1.29,1.29,0,1,1,32.29,31,1.29,1.29,0,0,1,31,32.29Zm4.37,1.63v0L33.7,32.29A3,3,0,0,0,34,31a3,3,0,0,0-3-3,3,3,0,0,0-1.29.3l-1.65-1.65h0l13.69-6.41Z" style="fill:#8d6c9f;"/><path d="M31,54A23,23,0,0,1,31,8a23.28,23.28,0,0,1,3.36.24,1,1,0,0,1-.29,2A21.25,21.25,0,0,0,31,10a21,21,0,1,0,13,4.48,1,1,0,1,1,1.24-1.57A23,23,0,0,1,31,54Z" style="fill:#8d6c9f;"/><path d="M41,12.4a1,1,0,0,1-.46-.11,20.87,20.87,0,0,0-2.31-1,1,1,0,0,1,.69-1.88,22.64,22.64,0,0,1,2.53,1.11A1,1,0,0,1,41,12.4Z" style="fill:#8d6c9f;"/></svg>
